<?xml version="1.0" encoding="UTF-8"?>
<svg version="1.1" xmlns="http://www.w3.org/2000/svg" width="225" height="225">
<path d="M0 0 C74.25 0 148.5 0 225 0 C225 74.25 225 148.5 225 225 C150.75 225 76.5 225 0 225 C0 150.75 0 76.5 0 0 Z " fill="#FEFEFE" transform="translate(0,0)"/>
<path d="M0 0 C1.21236328 -0.01224609 2.42472656 -0.02449219 3.67382812 -0.03710938 C13.86528242 -0.05350314 23.53606972 0.86556062 33.1875 4.3125 C34.19296875 4.66570312 35.1984375 5.01890625 36.234375 5.3828125 C36.96140625 5.64835937 37.6884375 5.91390625 38.4375 6.1875 C38.46645225 9.47914829 38.4842823 12.77076399 38.5 16.0625 C38.50837891 16.99964844 38.51675781 17.93679687 38.52539062 18.90234375 C38.52861328 19.79824219 38.53183594 20.69414063 38.53515625 21.6171875 C38.54039307 22.44460449 38.54562988 23.27202148 38.55102539 24.12451172 C38.4375 26.1875 38.4375 26.1875 37.4375 28.1875 C39.7475 28.8475 42.0575 29.5075 44.4375 30.1875 C44.4375 33.4875 44.4375 36.7875 44.4375 40.1875 C41.4675 41.1775 38.4975 42.1675 35.4375 43.1875 C35.4375 44.1775 35.4375 45.1675 35.4375 46.1875 C37.8765706 48.38892332 37.8765706 48.38892332 40.4375 50.1875 C39.87204163 54.14570859 38.62847652 56.8534053 36.4375 60.1875 C33.1375 59.8575 29.8375 59.5275 26.4375 59.1875 C26.9325 64.1375 26.9325 64.1375 27.4375 69.1875 C21.48046875 73.19140625 21.48046875 73.19140625 19.4375 74.1875 C16.4375 73.1875 16.4375 73.1875 15 71.125 C14.484375 70.485625 13.96875 69.84625 13.4375 69.1875 C12.1175 69.1875 10.7975 69.1875 9.4375 69.1875 C8.7775 71.8275 8.1175 74.4675 7.4375 77.1875 C3.8075 77.1875 0.1775 77.1875 -3.5625 77.1875 C-5.5625 70.4375 -5.5625 70.4375 -5.5625 68.1875 C-9.49923644 69.49974548 -11.78969294 71.10660327 -14.5625 74.1875 C-21.45710154 71.69778278 -21.45710154 71.69778278 -23.5625 69.1875 C-23.59528428 66.11670599 -23.14301256 63.19733143 -22.5625 60.1875 C-26.21438082 59.11575237 -28.82682828 59.42338533 -32.5625 60.1875 C-35.0375 56.7225 -35.0375 56.7225 -37.5625 53.1875 C-36.57719421 50.98951017 -35.74945263 49.36697452 -34 47.6875 C-32.29933989 45.91289815 -31.97455818 44.57743744 -31.5625 42.1875 C-32.861875 42.043125 -34.16125 41.89875 -35.5 41.75 C-39.4375 41.3125 -39.4375 41.3125 -40.5625 40.1875 C-40.70560287 36.5183423 -40.60471662 32.86034559 -40.5625 29.1875 C-36.2725 28.1975 -31.9825 27.2075 -27.5625 26.1875 C-27.5625 25.5275 -27.5625 24.8675 -27.5625 24.1875 C-29.8725 24.5175 -32.1825 24.8475 -34.5625 25.1875 C-34.5625 18.9175 -34.5625 12.6475 -34.5625 6.1875 C-32.025625 5.383125 -29.48875 4.57875 -26.875 3.75 C-26.08520752 3.49806885 -25.29541504 3.2461377 -24.48168945 2.98657227 C-23.84448975 2.78604248 -23.20729004 2.5855127 -22.55078125 2.37890625 C-21.90665283 2.17467041 -21.26252441 1.97043457 -20.59887695 1.76000977 C-13.74791517 -0.16607888 -7.07307846 0.00367815 0 0 Z " fill="#F3F6F9" transform="translate(112.5625,93.8125)"/>
<path d="M0 0 C4.78521384 2.37821097 9.50130293 4.85054007 14.18359375 7.42578125 C15.23538818 7.99965576 16.28718262 8.57353027 17.37084961 9.16479492 C25.68548653 13.71679355 33.94000484 18.37262456 42.1796875 23.05859375 C49.79641271 27.38361534 57.48451719 31.55470014 65.24609375 35.61328125 C62.84290782 38.26194325 60.25121348 39.94181331 57.17578125 41.75 C56.19738281 42.32685547 55.21898437 42.90371094 54.2109375 43.49804688 C53.19128906 44.09294922 52.17164063 44.68785156 51.12109375 45.30078125 C50.09371094 45.90728516 49.06632812 46.51378906 48.0078125 47.13867188 C40.38738664 51.61328125 40.38738664 51.61328125 39.24609375 51.61328125 C39.24609375 48.97328125 39.24609375 46.33328125 39.24609375 43.61328125 C13.44761694 36.32353129 -12.12164772 32.52141867 -37.71484375 42.84375 C-39.75390625 43.61328125 -39.75390625 43.61328125 -41.75390625 43.61328125 C-41.75390625 46.25328125 -41.75390625 48.89328125 -41.75390625 51.61328125 C-47.22437998 49.55243641 -52.01053523 46.62065243 -57.00390625 43.61328125 C-57.926875 43.06671875 -58.84984375 42.52015625 -59.80078125 41.95703125 C-60.67734375 41.43109375 -61.55390625 40.90515625 -62.45703125 40.36328125 C-63.65827637 39.64398438 -63.65827637 39.64398438 -64.88378906 38.91015625 C-66.75390625 37.61328125 -66.75390625 37.61328125 -67.75390625 35.61328125 C-62.4296875 32.67578125 -62.4296875 32.67578125 -60.71638489 31.73052979 C-57.52750094 29.97117159 -54.3386629 28.21173028 -51.14990234 26.45214844 C-44.97438441 23.04455766 -38.79861169 19.6374342 -32.62120056 16.23327637 C-30.00231431 14.79006236 -27.38364208 13.34646023 -24.76498413 11.90283203 C-23.51787816 11.21546382 -22.27066718 10.5282861 -21.02334595 9.84130859 C-19.26919902 8.87516671 -17.51545211 7.90829865 -15.76171875 6.94140625 C-14.17665527 6.07612305 -14.17665527 6.07612305 -12.55957031 5.19335938 C-10.23789833 3.88585319 -8.03572843 2.49234213 -5.80859375 1.03515625 C-2.75390625 -0.38671875 -2.75390625 -0.38671875 0 0 Z " fill="#254777" transform="translate(115.75390625,54.38671875)"/>
<path d="M0 0 C-0.32355469 0.71542969 -0.64710937 1.43085937 -0.98046875 2.16796875 C-3.67541744 9.65393733 -2.20731713 16.96857398 1 24 C1.309375 24.78375 1.61875 25.5675 1.9375 26.375 C3.34719474 28.53100371 4.62888219 29.01203425 7 30 C7.89460938 30.5053125 8.78921875 31.010625 9.7109375 31.53125 C15.80453571 34.25238174 23.1019844 34.07301518 29.51171875 32.30859375 C35.38325254 29.63564789 38.70111246 25.32903973 41.8125 19.75 C44.08229928 12.58221281 43.44258984 6.02244578 41 -1 C60.61702128 2.61702128 60.61702128 2.61702128 63 5 C63.07205511 6.68608966 63.08386068 8.37500659 63.0625 10.0625 C63.05347656 10.98160156 63.04445313 11.90070313 63.03515625 12.84765625 C63.02355469 13.55792969 63.01195312 14.26820313 63 15 C60.03 15.99 57.06 16.98 54 18 C54 18.99 54 19.98 54 21 C56.4390706 23.20142332 56.4390706 23.20142332 59 25 C58.43454163 28.95820859 57.19097652 31.6659053 55 35 C51.7 34.67 48.4 34.34 45 34 C45.495 38.95 45.495 38.95 46 44 C40.04296875 48.00390625 40.04296875 48.00390625 38 49 C35 48 35 48 33.5625 45.9375 C33.046875 45.298125 32.53125 44.65875 32 44 C30.68 44 29.36 44 28 44 C27.34 46.64 26.68 49.28 26 52 C22.37 52 18.74 52 15 52 C13 45.25 13 45.25 13 43 C9.06326356 44.31224548 6.77280706 45.91910327 4 49 C-2.89460154 46.51028278 -2.89460154 46.51028278 -5 44 C-5.03278428 40.92920599 -4.58051256 38.00983143 -4 35 C-7.65188082 33.92825237 -10.26432828 34.23588533 -14 35 C-15.65 32.69 -17.3 30.38 -19 28 C-18.01469421 25.80201017 -17.18695263 24.17947452 -15.4375 22.5 C-13.73683989 20.72539815 -13.41205818 19.38993744 -13 17 C-14.299375 16.855625 -15.59875 16.71125 -16.9375 16.5625 C-20.875 16.125 -20.875 16.125 -22 15 C-22.07226502 13.14712498 -22.0838122 11.29166122 -22.0625 9.4375 C-22.05347656 8.42558594 -22.04445313 7.41367188 -22.03515625 6.37109375 C-22.02355469 5.58863281 -22.01195313 4.80617188 -22 4 C-19.08644159 3.13372595 -16.16995672 2.28168994 -13.25 1.4375 C-12.425 1.19064453 -11.6 0.94378906 -10.75 0.68945312 C-9.95078125 0.46064453 -9.1515625 0.23183594 -8.328125 -0.00390625 C-7.5949707 -0.21861572 -6.86181641 -0.4333252 -6.10644531 -0.65454102 C-3.76130184 -1.03914672 -2.24174192 -0.72878764 0 0 Z " fill="#55B6DD" transform="translate(94,119)"/>
<path d="M0 0 C1.21236328 -0.01224609 2.42472656 -0.02449219 3.67382812 -0.03710938 C16.11089514 -0.05711538 26.75126263 2.0138438 38.4375 6.1875 C38.4375 12.7875 38.4375 19.3875 38.4375 26.1875 C36.58125 25.56875 34.725 24.95 32.8125 24.3125 C14.1862738 18.67666761 -6.28646824 17.91097187 -25.06640625 23.21484375 C-28.5625 24.1875 -28.5625 24.1875 -34.5625 25.1875 C-34.5625 18.9175 -34.5625 12.6475 -34.5625 6.1875 C-32.025625 5.383125 -29.48875 4.57875 -26.875 3.75 C-26.08520752 3.49806885 -25.29541504 3.2461377 -24.48168945 2.98657227 C-23.84448975 2.78604248 -23.20729004 2.5855127 -22.55078125 2.37890625 C-21.90665283 2.17467041 -21.26252441 1.97043457 -20.59887695 1.76000977 C-13.74791517 -0.16607888 -7.07307846 0.00367815 0 0 Z " fill="#254777" transform="translate(112.5625,93.8125)"/>
<path d="M0 0 C4.75 0.75 4.75 0.75 7 3 C5.329375 3.2784375 5.329375 3.2784375 3.625 3.5625 C2.42875 4.036875 1.2325 4.51125 0 5 C-1.54086322 8.51400668 -1.54086322 8.51400668 -2 12 C-0.02 12 1.96 12 4 12 C4.33 10.35 4.66 8.7 5 7 C5.66 7 6.32 7 7 7 C7 8.65 7 10.3 7 12 C9.31 12 11.62 12 14 12 C14 9.69 14 7.38 14 5 C14.33 5 14.66 5 15 5 C15 7.31 15 9.62 15 12 C17.31 12 19.62 12 22 12 C21.67 9.69 21.34 7.38 21 5 C21.66 5 22.32 5 23 5 C23.33 7.31 23.66 9.62 24 12 C26.31 12 28.62 12 31 12 C31.33 10.68 31.66 9.36 32 8 C33.53123685 9.53123685 33.24307107 10.93212824 33.3125 13.0625 C33.23189181 18.13275527 32.04487119 21.92537645 29 26 C23.705208 30.9508148 18.54332013 32.43027717 11.37890625 32.34765625 C6.05921073 31.57022948 2.27747598 28.31109377 -1.375 24.5625 C-4.84126567 19.09646567 -5.33123869 14.72876558 -4.55859375 8.4140625 C-3.74495505 4.89777776 -2.2673177 2.77929267 0 0 Z " fill="#8496B0" transform="translate(100,117)"/>
<path d="M0 0 C4.75 0.75 4.75 0.75 7 3 C5.329375 3.2784375 5.329375 3.2784375 3.625 3.5625 C2.42875 4.036875 1.2325 4.51125 0 5 C-1.54086322 8.51400668 -1.54086322 8.51400668 -2 12 C-0.02 12 1.96 12 4 12 C4.33 10.35 4.66 8.7 5 7 C5.66 7 6.32 7 7 7 C7 8.65 7 10.3 7 12 C9.31 12 11.62 12 14 12 C14 9.69 14 7.38 14 5 C14.33 5 14.66 5 15 5 C15 7.31 15 9.62 15 12 C17.31 12 19.62 12 22 12 C21.67 9.69 21.34 7.38 21 5 C21.66 5 22.32 5 23 5 C23.33 7.31 23.66 9.62 24 12 C26.31 12 28.62 12 31 12 C31.33 10.68 31.66 9.36 32 8 C33 9 33 9 33.0625 12.5625 C33.041875 13.696875 33.02125 14.83125 33 16 C32.34 16 31.68 16 31 16 C31 15.34 31 14.68 31 14 C28.69 14 26.38 14 24 14 C24 14.66 24 15.32 24 16 C23.34 16 22.68 16 22 16 C22 15.34 22 14.68 22 14 C19.69 14 17.38 14 15 14 C15 16.31 15 18.62 15 21 C14.67 21 14.34 21 14 21 C14 18.69 14 16.38 14 14 C11.69 14 9.38 14 7 14 C7.33 16.64 7.66 19.28 8 22 C7.34 22 6.68 22 6 22 C5.34 19.36 4.68 16.72 4 14 C2.02 14 0.04 14 -2 14 C-1.26532365 16.82914839 -0.46581614 19.46032588 1 22 C4.07797583 23.14031566 4.07797583 23.14031566 7 23 C6.01 24.32 5.02 25.64 4 27 C5.65 27.33 7.3 27.66 9 28 C8.67 27.01 8.34 26.02 8 25 C9.32 25.66 10.64 26.32 12 27 C12 27.66 12 28.32 12 29 C13.65 28.67 15.3 28.34 17 28 C17.33 27.01 17.66 26.02 18 25 C18.99 25.33 19.98 25.66 21 26 C21 26.66 21 27.32 21 28 C22.65 27.67 24.3 27.34 26 27 C22.72488195 30.62602356 20.67337378 31.64824029 15.921875 32.2734375 C9.66506175 32.56602229 5.81221517 30.97198712 1 27 C-2.85790374 23.04057247 -4.95270752 19.22114363 -5.03515625 13.60546875 C-4.6851611 7.91164518 -3.60578403 4.41999332 0 0 Z " fill="#274A7A" transform="translate(100,117)"/>
<path d="M0 0 C0.99 0 1.98 0 3 0 C3 0.66 3 1.32 3 2 C3.66 2.33 4.32 2.66 5 3 C5 2.01 5 1.02 5 0 C5.66 0 6.32 0 7 0 C7 0.99 7 1.98 7 3 C7.99 2.34 8.98 1.68 10 1 C13.39053243 0.46226948 16.61025706 0.44986139 20 1 C22.88065481 3.52935545 24.73993847 6.09907705 25 10 C24.34 10.99 23.68 11.98 23 13 C19.375 13.1875 19.375 13.1875 16 13 C15.67 10.69 15.34 8.38 15 6 C14.34 6 13.68 6 13 6 C13.33 8.31 13.66 10.62 14 13 C9.05 13 4.1 13 -1 13 C-1 11.35 -1 9.7 -1 8 C-1.66 8 -2.32 8 -3 8 C-3.33 9.65 -3.66 11.3 -4 13 C-5.98 13 -7.96 13 -10 13 C-9.25 6.25 -9.25 6.25 -7 4 C-3.875 3.875 -3.875 3.875 -1 4 C-0.67 2.68 -0.34 1.36 0 0 Z " fill="#385783" transform="translate(108,116)"/>
<path d="M0 0 C1.98 0 3.96 0 6 0 C6.99 5.61 7.98 11.22 9 17 C6.75487738 18.12256131 5.48543351 18.13413762 3 18.125 C1.948125 18.12886719 1.948125 18.12886719 0.875 18.1328125 C-1 18 -1 18 -3 17 C-2.69095829 14.72869344 -2.37765093 12.45796695 -2.0625 10.1875 C-1.88847656 8.92292969 -1.71445312 7.65835938 -1.53515625 6.35546875 C-1 3 -1 3 0 0 Z " fill="#294B7A" transform="translate(47,119)"/>
<path d="M0 0 C0.33 0 0.66 0 1 0 C1 2.31 1 4.62 1 7 C3.31 7 5.62 7 8 7 C7.67 4.69 7.34 2.38 7 0 C7.66 0 8.32 0 9 0 C9.33 2.31 9.66 4.62 10 7 C12.31 7 14.62 7 17 7 C17.33 5.68 17.66 4.36 18 3 C19 4 19 4 19.0625 7.5625 C19.041875 8.696875 19.02125 9.83125 19 11 C18.34 11 17.68 11 17 11 C17 10.34 17 9.68 17 9 C14.69 9 12.38 9 10 9 C10 9.66 10 10.32 10 11 C9.34 11 8.68 11 8 11 C8 10.34 8 9.68 8 9 C5.69 9 3.38 9 1 9 C1 11.31 1 13.62 1 16 C0.67 16 0.34 16 0 16 C0 13.69 0 11.38 0 9 C-2.31 9 -4.62 9 -7 9 C-6.67 11.64 -6.34 14.28 -6 17 C-6.66 17 -7.32 17 -8 17 C-8.66 14.36 -9.32 11.72 -10 9 C-11.98 9 -13.96 9 -16 9 C-16 8.34 -16 7.68 -16 7 C-14.02 7 -12.04 7 -10 7 C-9.67 5.35 -9.34 3.7 -9 2 C-8.34 2 -7.68 2 -7 2 C-7 3.65 -7 5.3 -7 7 C-4.69 7 -2.38 7 0 7 C0 4.69 0 2.38 0 0 Z " fill="#0A396F" transform="translate(114,122)"/>
<path d="M0 0 C2.31 0 4.62 0 7 0 C7 0.66 7 1.32 7 2 C7.66 2 8.32 2 9 2 C7.80805531 7.52628901 6.4008703 10.17819158 2 14 C-0.5 12.375 -0.5 12.375 -3 10 C-3.38172649 6.81894588 -3.43735246 4.87470493 -2 2 C-1.34 2 -0.68 2 0 2 C0 1.34 0 0.68 0 0 Z " fill="#2D4F7D" transform="translate(124,131)"/>
<path d="M0 0 C4.75 0.75 4.75 0.75 7 3 C5.2984375 3.433125 5.2984375 3.433125 3.5625 3.875 C2.386875 4.24625 1.21125 4.6175 0 5 C-1.2866645 7.573329 -1.16824551 9.50223038 -1.1875 12.375 C-1.20167969 13.33148438 -1.21585937 14.28796875 -1.23046875 15.2734375 C-0.8981883 19.20448419 0.23492397 21.23492397 3 24 C1.35 24 -0.3 24 -2 24 C-4.91111245 17.71199711 -5.7223091 12.79858856 -4 6 C-2.86093826 3.6851326 -1.64434497 2.01564867 0 0 Z " fill="#395984" transform="translate(100,117)"/>
<path d="M0 0 C1.98 0.99 1.98 0.99 4 2 C4 7.94 4 13.88 4 20 C2.68 20 1.36 20 0 20 C0 13.4 0 6.8 0 0 Z " fill="#183F72" transform="translate(48,95)"/>
<path d="M0 0 C2.31 0 4.62 0 7 0 C6.5020163 3.73487777 6.12508244 5.81237635 4 9 C2.35 8.67 0.7 8.34 -1 8 C-0.67 5.36 -0.34 2.72 0 0 Z " fill="#EFF1F4" transform="translate(124,131)"/>
<path d="M0 0 C1.98 0 3.96 0 6 0 C6.66 2.97 7.32 5.94 8 9 C5.6875 9.3125 5.6875 9.3125 3 9 C0.36439287 5.72821183 0 4.27931853 0 0 Z " fill="#EEF0F3" transform="translate(98,131)"/>
<path d="M0 0 C2 0.875 2 0.875 3.25 3.25 C4 5.875 4 5.875 4 8.875 C1.69 8.875 -0.62 8.875 -3 8.875 C-3.33 6.235 -3.66 3.595 -4 0.875 C-2 -0.125 -2 -0.125 0 0 Z " fill="#F0F2F5" transform="translate(127,120.125)"/>
<path d="M0 0 C2.625 0.375 2.625 0.375 5 1 C4.34 3.64 3.68 6.28 3 9 C1.02 9 -0.96 9 -3 9 C-2.25 2.25 -2.25 2.25 0 0 Z " fill="#F3F4F7" transform="translate(101,120)"/>
<path d="M0 0 C0.66 0 1.32 0 2 0 C2.33 4.95 2.66 9.9 3 15 C2.34 15 1.68 15 1 15 C0.34 12.36 -0.32 9.72 -1 7 C-2.98 7 -4.96 7 -7 7 C-7 6.34 -7 5.68 -7 5 C-5.02 5 -3.04 5 -1 5 C-0.67 3.35 -0.34 1.7 0 0 Z " fill="#1C4577" transform="translate(105,124)"/>
<path d="M0 0 C1.98 0 3.96 0 6 0 C6.33 2.31 6.66 4.62 7 7 C4.69 7 2.38 7 0 7 C0 4.69 0 2.38 0 0 Z " fill="#E5E8EE" transform="translate(115,122)"/>
<path d="M0 0 C1.98 0 3.96 0 6 0 C6 2.31 6 4.62 6 7 C4.33388095 7.042721 2.66617115 7.04063832 1 7 C0 6 0 6 -0.0625 2.9375 C-0.041875 1.968125 -0.02125 0.99875 0 0 Z " fill="#F2F3F6" transform="translate(107,131)"/>
<path d="M0 0 C1.65 0 3.3 0 5 0 C5 2.31 5 4.62 5 7 C3.02 7 1.04 7 -1 7 C-0.67 4.69 -0.34 2.38 0 0 Z " fill="#FAFBFC" transform="translate(108,122)"/>
<path d="M0 0 C0.99 0 1.98 0 3 0 C3 0.66 3 1.32 3 2 C3.66 2.33 4.32 2.66 5 3 C5 2.01 5 1.02 5 0 C5.66 0.33 6.32 0.66 7 1 C6.34 2.65 5.68 4.3 5 6 C3.35 6 1.7 6 0 6 C-0.33 6.99 -0.66 7.98 -1 9 C-1.66 8.67 -2.32 8.34 -3 8 C-3.625 5.9375 -3.625 5.9375 -4 4 C-3.01 4 -2.02 4 -1 4 C-0.67 2.68 -0.34 1.36 0 0 Z " fill="#4F698F" transform="translate(108,116)"/>
<path d="M0 0 C4.75 0.75 4.75 0.75 7 3 C5.906875 3.185625 4.81375 3.37125 3.6875 3.5625 C0.0509502 4.57516528 0.0509502 4.57516528 -1.1328125 6.69140625 C-2.05926212 8.83650143 -2.05926212 8.83650143 -3 12 C-3.33 12 -3.66 12 -4 12 C-4.50423019 6.70558305 -3.18923033 4.18586481 0 0 Z " fill="#2C4F7D" transform="translate(100,117)"/>
<path d="M0 0 C-1.485 1.485 -1.485 1.485 -3 3 C-2.21625 3.28875 -1.4325 3.5775 -0.625 3.875 C2 5 2 5 4 7 C-1.62917348 6.59791618 -4.00386479 4.71069698 -8 1 C-4.93251126 -0.86240388 -3.40254489 -1.2151946 0 0 Z " fill="#1E4576" transform="translate(107,141)"/>
<path d="M0 0 C2.31 0 4.62 0 7 0 C7 0.66 7 1.32 7 2 C5.35 2.33 3.7 2.66 2 3 C2.66 4.32 3.32 5.64 4 7 C2.02 6.34 0.04 5.68 -2 5 C-1.34 3.35 -0.68 1.7 0 0 Z " fill="#7E91AD" transform="translate(106,139)"/>
<path d="M0 0 C1.65 0 3.3 0 5 0 C5 1.98 5 3.96 5 6 C3.35 6 1.7 6 0 6 C0 4.02 0 2.04 0 0 Z " fill="#FBFCFC" transform="translate(116,132)"/>
<path d="M0 0 C1.65 0 3.3 0 5 0 C5 0.99 5 1.98 5 3 C6.32 3.66 7.64 4.32 9 5 C7.68 5.99 6.36 6.98 5 8 C4.34 7.67 3.68 7.34 3 7 C3 6.01 3 5.02 3 4 C1.68 3.34 0.36 2.68 -1 2 C-0.67 1.34 -0.34 0.68 0 0 Z " fill="#96A5BB" transform="translate(116,138)"/>
<path d="M0 0 C0.33 0.99 0.66 1.98 1 3 C2.65 3 4.3 3 6 3 C5.34 3.66 4.68 4.32 4 5 C2.68 5 1.36 5 0 5 C0 7.31 0 9.62 0 12 C-0.33 12 -0.66 12 -1 12 C-1 9.36 -1 6.72 -1 4 C-2.65 4 -4.3 4 -6 4 C-6 3.67 -6 3.34 -6 3 C-4.02 3 -2.04 3 0 3 C0 2.01 0 1.02 0 0 Z " fill="#244878" transform="translate(114,117)"/>
<path d="M0 0 C0.66 0 1.32 0 2 0 C1.1875 3.4375 1.1875 3.4375 0 7 C-0.99 7.33 -1.98 7.66 -3 8 C-1.125 1.125 -1.125 1.125 0 0 Z " fill="#214778" transform="translate(131,133)"/>
<path d="M0 0 C0.66 0 1.32 0 2 0 C1.01 2.97 0.02 5.94 -1 9 C-1.33 9 -1.66 9 -2 9 C-2.25 3.375 -2.25 3.375 0 0 Z " fill="#1B4376" transform="translate(98,120)"/>
<path d="M0 0 C-1.3125 1.5 -1.3125 1.5 -3 3 C-3.99 3 -4.98 3 -6 3 C-6.33 2.01 -6.66 1.02 -7 0 C-3.86650268 -1.04449911 -3.01031744 -0.93423645 0 0 Z " fill="#DDE8EF" transform="translate(91,117)"/>
</svg>
